<svg width="82" height="41" viewBox="0 0 82 41" fill="none" xmlns="http://www.w3.org/2000/svg">
<path d="M60.4189 41C57.4162 40.9479 54.468 40.197 51.8159 38.8077C49.1638 37.4185 46.8826 35.4308 45.1582 33.0066L30.0223 12.9615C29.0572 11.5113 27.7437 10.3186 26.1986 9.48905C24.6536 8.65953 22.9246 8.21891 21.1653 8.20629C19.2668 8.42855 17.4533 9.10991 15.8863 10.1898C14.3194 11.2697 13.0474 12.7147 12.1836 14.3962L7.15213 22.5946L0 18.4954L5.03144 10.2969C6.56295 7.42613 8.80049 4.98001 11.5393 3.18247C14.278 1.38493 17.4305 0.293398 20.7079 0.00788886C23.8813 -0.0835233 27.0262 0.62076 29.8481 2.05466C32.6699 3.4886 35.0762 5.60522 36.8418 8.20629L52.144 28.2515C53.1145 29.6432 54.4111 30.7836 55.9242 31.5759C57.437 32.3679 59.1215 32.7885 60.8347 32.8016C62.7346 32.5827 64.5492 31.9027 66.1169 30.8225C67.6845 29.7424 68.9557 28.2954 69.8164 26.6118L74.8479 18.4134L82 22.5126L76.9685 30.711C75.4371 33.5817 73.1995 36.0277 70.4609 37.8252C67.7219 39.6227 64.5696 40.7143 61.2921 41H60.4189Z" fill="white"/>
</svg>
